<svg id="svg" version="1.1" xmlns="http://www.w3.org/2000/svg" xmlns:xlink="http://www.w3.org/1999/xlink" width="400" height="400" viewBox="0, 0, 400,400"><g id="svgg"><path id="path0" d="M192.600 83.593 C 189.740 83.752,186.680 84.003,185.800 84.150 C 184.920 84.297,182.940 84.608,181.400 84.840 C 178.255 85.313,177.171 85.541,171.200 86.981 C 166.588 88.094,160.646 90.058,156.000 92.006 C 154.350 92.697,152.660 93.367,152.243 93.493 C 151.827 93.620,149.847 94.565,147.843 95.595 C 136.795 101.270,128.310 107.222,119.788 115.273 C 113.187 121.510,100.800 136.708,100.800 138.570 C 100.800 138.688,100.166 139.776,99.391 140.988 C 92.984 151.004,87.093 167.436,84.833 181.600 C 83.697 188.720,83.511 191.301,83.508 199.994 C 83.505 208.680,83.688 211.226,84.833 218.400 C 87.494 235.078,93.962 251.528,103.292 265.351 C 117.794 286.835,140.203 303.572,164.600 311.141 C 177.464 315.132,186.047 316.427,199.800 316.453 C 209.696 316.471,216.414 315.874,223.000 314.392 C 236.959 311.250,248.279 307.034,257.400 301.578 C 258.500 300.920,259.670 300.264,260.000 300.120 C 261.496 299.469,268.844 294.342,272.988 291.059 C 294.504 274.012,310.034 248.000,314.818 221.000 C 316.519 211.400,317.141 194.303,316.048 187.200 C 315.794 185.550,315.389 182.850,315.147 181.200 C 313.364 169.034,307.601 152.654,301.516 142.459 C 300.682 141.062,300.000 139.840,300.000 139.744 C 300.000 139.648,298.890 137.918,297.533 135.900 C 295.276 132.544,294.369 131.289,291.256 127.220 C 280.356 112.974,261.578 98.910,244.200 91.977 C 236.787 89.020,223.536 85.200,220.689 85.200 C 220.156 85.200,219.198 85.039,218.560 84.841 C 215.233 83.812,200.979 83.127,192.600 83.593 M233.237 163.323 C 234.319 163.889,235.502 164.988,236.300 166.168 L 237.600 168.090 237.600 199.865 C 237.600 234.353,237.703 232.663,235.453 235.139 C 233.103 237.725,234.911 237.600,199.861 237.600 L 168.090 237.600 166.188 236.300 C 165.111 235.564,163.874 234.253,163.336 233.277 L 162.386 231.554 162.493 199.611 L 162.600 167.669 163.800 165.965 C 164.484 164.993,165.774 163.865,166.800 163.342 L 168.600 162.423 200.037 162.411 L 231.474 162.400 233.237 163.323 " stroke="none" fill="#fbfbfb" fill-rule="evenodd"></path><path id="path1" d="M178.700 0.273 C 176.555 0.359,174.800 0.602,174.800 0.814 C 174.800 1.027,173.540 1.200,172.000 1.200 C 170.400 1.200,169.200 1.371,169.200 1.600 C 169.200 1.822,168.133 2.000,166.800 2.000 C 165.467 2.000,164.400 2.178,164.400 2.400 C 164.400 2.620,163.421 2.800,162.224 2.800 C 161.027 2.800,159.936 2.980,159.800 3.200 C 159.664 3.420,158.933 3.600,158.176 3.600 C 157.419 3.600,156.800 3.780,156.800 4.000 C 156.800 4.220,155.900 4.400,154.800 4.400 C 153.700 4.400,152.800 4.580,152.800 4.800 C 152.800 5.020,152.080 5.200,151.200 5.200 C 150.320 5.200,149.600 5.380,149.600 5.600 C 149.600 5.820,148.880 6.000,148.000 6.000 C 147.120 6.000,146.400 6.180,146.400 6.400 C 146.400 6.620,145.860 6.800,145.200 6.800 C 144.540 6.800,144.000 6.980,144.000 7.200 C 144.000 7.420,143.370 7.600,142.600 7.600 C 141.830 7.600,141.200 7.780,141.200 8.000 C 141.200 8.220,140.771 8.400,140.246 8.400 C 139.222 8.400,135.447 9.440,134.305 10.037 C 133.923 10.237,133.259 10.400,132.829 10.400 C 132.399 10.400,131.936 10.580,131.800 10.800 C 131.664 11.020,131.203 11.200,130.776 11.200 C 130.349 11.200,130.000 11.380,130.000 11.600 C 130.000 11.820,129.460 12.000,128.800 12.000 C 128.140 12.000,127.600 12.180,127.600 12.400 C 127.600 12.620,127.150 12.800,126.600 12.800 C 126.050 12.800,125.600 12.980,125.600 13.200 C 125.600 13.420,125.240 13.600,124.800 13.600 C 124.360 13.600,124.000 13.780,124.000 14.000 C 124.000 14.220,123.460 14.400,122.800 14.400 C 122.140 14.400,121.599 14.535,121.597 14.700 C 121.593 15.059,119.656 16.000,118.920 16.000 C 118.634 16.000,118.400 16.180,118.400 16.400 C 118.400 16.620,118.040 16.800,117.600 16.800 C 117.160 16.800,116.800 16.980,116.800 17.200 C 116.800 17.420,116.260 17.600,115.600 17.600 C 114.940 17.600,114.400 17.780,114.400 18.000 C 114.400 18.220,114.040 18.400,113.600 18.400 C 113.160 18.400,112.800 18.580,112.800 18.800 C 112.800 19.020,112.530 19.200,112.200 19.200 C 111.870 19.200,111.600 19.380,111.600 19.600 C 111.600 19.820,111.366 20.000,111.080 20.000 C 110.344 20.000,108.407 20.941,108.403 21.300 C 108.401 21.465,108.040 21.600,107.600 21.600 C 107.160 21.600,106.800 21.780,106.800 22.000 C 106.800 22.220,106.480 22.400,106.088 22.400 C 105.697 22.400,105.117 22.760,104.800 23.200 C 104.483 23.640,103.903 24.000,103.512 24.000 C 103.120 24.000,102.800 24.180,102.800 24.400 C 102.800 24.620,102.440 24.800,102.000 24.800 C 101.560 24.800,101.200 24.980,101.200 25.200 C 101.200 25.420,101.065 25.564,100.900 25.521 C 100.354 25.377,98.800 26.047,98.800 26.427 C 98.800 26.632,98.440 26.800,98.000 26.800 C 97.560 26.800,97.200 26.980,97.200 27.200 C 97.200 27.420,96.952 27.600,96.649 27.600 C 96.346 27.600,95.871 27.873,95.594 28.207 C 95.317 28.541,94.440 29.117,93.645 29.487 C 92.850 29.857,91.909 30.483,91.553 30.880 C 91.197 31.276,90.652 31.600,90.341 31.600 C 90.031 31.600,89.517 31.960,89.200 32.400 C 88.883 32.840,88.343 33.200,88.000 33.200 C 87.657 33.200,87.117 33.560,86.800 34.000 C 86.483 34.440,85.975 34.800,85.672 34.800 C 85.369 34.800,84.617 35.340,84.000 36.000 C 83.383 36.660,82.631 37.200,82.328 37.200 C 82.025 37.200,81.517 37.560,81.200 38.000 C 80.883 38.440,80.375 38.800,80.072 38.800 C 79.769 38.800,79.017 39.340,78.400 40.000 C 77.783 40.660,77.119 41.200,76.923 41.200 C 76.727 41.200,75.899 41.830,75.082 42.600 C 74.266 43.370,73.427 44.000,73.219 44.000 C 73.010 44.000,71.756 45.080,70.432 46.400 C 69.108 47.720,67.833 48.800,67.600 48.800 C 67.366 48.800,65.194 50.825,62.774 53.300 C 57.490 58.703,58.703 57.490,53.300 62.774 C 50.825 65.194,48.800 67.372,48.800 67.613 C 48.800 67.855,47.900 68.929,46.800 70.000 C 45.700 71.071,44.800 72.146,44.800 72.387 C 44.800 72.629,44.170 73.457,43.400 74.227 C 42.630 74.997,42.000 75.779,42.000 75.965 C 42.000 76.151,41.280 77.045,40.400 77.952 C 39.520 78.859,38.800 79.831,38.800 80.112 C 38.800 80.393,38.440 80.883,38.000 81.200 C 37.560 81.517,37.200 82.025,37.200 82.328 C 37.200 82.631,36.660 83.383,36.000 84.000 C 35.340 84.617,34.800 85.369,34.800 85.672 C 34.800 85.975,34.440 86.483,34.000 86.800 C 33.560 87.117,33.200 87.657,33.200 88.000 C 33.200 88.343,32.840 88.883,32.400 89.200 C 31.960 89.517,31.600 90.031,31.600 90.341 C 31.600 90.652,31.276 91.197,30.880 91.553 C 30.483 91.909,29.857 92.850,29.487 93.645 C 29.117 94.440,28.541 95.317,28.207 95.594 C 27.873 95.871,27.600 96.346,27.600 96.649 C 27.600 96.952,27.420 97.200,27.200 97.200 C 26.980 97.200,26.800 97.560,26.800 98.000 C 26.800 98.440,26.653 98.800,26.474 98.800 C 26.076 98.800,24.800 101.401,24.800 102.214 C 24.800 102.536,24.620 102.800,24.400 102.800 C 24.180 102.800,24.000 103.160,24.000 103.600 C 24.000 104.040,23.820 104.400,23.600 104.400 C 23.380 104.400,23.200 104.720,23.200 105.112 C 23.200 105.503,22.840 106.083,22.400 106.400 C 21.960 106.717,21.600 107.297,21.600 107.688 C 21.600 108.080,21.454 108.400,21.275 108.400 C 21.096 108.400,20.702 109.030,20.400 109.800 C 20.098 110.570,19.704 111.200,19.525 111.200 C 19.346 111.200,19.200 111.560,19.200 112.000 C 19.200 112.440,19.020 112.800,18.800 112.800 C 18.580 112.800,18.400 113.340,18.400 114.000 C 18.400 114.660,18.220 115.200,18.000 115.200 C 17.780 115.200,17.600 115.560,17.600 116.000 C 17.600 116.440,17.420 116.800,17.200 116.800 C 16.980 116.800,16.800 117.160,16.800 117.600 C 16.800 118.040,16.620 118.400,16.400 118.400 C 16.180 118.400,16.000 118.760,16.000 119.200 C 16.000 119.640,15.820 120.000,15.600 120.000 C 15.380 120.000,15.200 120.540,15.200 121.200 C 15.200 121.860,15.020 122.400,14.800 122.400 C 14.580 122.400,14.400 122.760,14.400 123.200 C 14.400 123.640,14.220 124.000,14.000 124.000 C 13.780 124.000,13.600 124.360,13.600 124.800 C 13.600 125.240,13.420 125.600,13.200 125.600 C 12.980 125.600,12.800 126.039,12.800 126.576 C 12.800 127.113,12.620 127.664,12.400 127.800 C 12.180 127.936,12.000 128.487,12.000 129.024 C 12.000 129.561,11.820 130.000,11.600 130.000 C 11.380 130.000,11.200 130.349,11.200 130.776 C 11.200 131.203,11.020 131.664,10.800 131.800 C 10.580 131.936,10.400 132.476,10.400 133.000 C 10.400 133.524,10.220 134.064,10.000 134.200 C 9.780 134.336,9.600 134.851,9.600 135.344 C 9.600 135.837,9.421 136.419,9.202 136.638 C 8.984 136.856,8.688 138.152,8.546 139.518 C 8.403 140.883,8.132 142.000,7.943 142.000 C 7.754 142.000,7.600 142.450,7.600 143.000 C 7.600 143.550,7.420 144.000,7.200 144.000 C 6.980 144.000,6.800 144.720,6.800 145.600 C 6.800 146.480,6.620 147.200,6.400 147.200 C 6.180 147.200,6.000 147.740,6.000 148.400 C 6.000 149.060,5.820 149.600,5.600 149.600 C 5.380 149.600,5.200 150.320,5.200 151.200 C 5.200 152.080,5.020 152.800,4.800 152.800 C 4.580 152.800,4.400 153.700,4.400 154.800 C 4.400 155.900,4.220 156.800,4.000 156.800 C 3.780 156.800,3.600 157.610,3.600 158.600 C 3.600 159.590,3.420 160.400,3.200 160.400 C 2.980 160.400,2.800 161.300,2.800 162.400 C 2.800 163.500,2.620 164.400,2.400 164.400 C 2.178 164.400,2.000 165.467,2.000 166.800 C 2.000 168.133,1.822 169.200,1.600 169.200 C 1.372 169.200,1.200 170.389,1.200 171.967 C 1.200 173.824,1.036 174.788,0.700 174.900 C -0.032 175.144,-0.032 224.856,0.700 225.100 C 1.036 225.212,1.200 226.176,1.200 228.033 C 1.200 229.611,1.372 230.800,1.600 230.800 C 1.822 230.800,2.000 231.867,2.000 233.200 C 2.000 234.533,2.178 235.600,2.400 235.600 C 2.620 235.600,2.800 236.579,2.800 237.776 C 2.800 238.973,2.980 240.064,3.200 240.200 C 3.420 240.336,3.600 241.067,3.600 241.824 C 3.600 242.581,3.780 243.200,4.000 243.200 C 4.220 243.200,4.400 244.100,4.400 245.200 C 4.400 246.300,4.580 247.200,4.800 247.200 C 5.020 247.200,5.200 247.920,5.200 248.800 C 5.200 249.680,5.380 250.400,5.600 250.400 C 5.820 250.400,6.000 251.120,6.000 252.000 C 6.000 252.880,6.180 253.600,6.400 253.600 C 6.620 253.600,6.800 254.140,6.800 254.800 C 6.800 255.460,6.980 256.000,7.200 256.000 C 7.420 256.000,7.600 256.630,7.600 257.400 C 7.600 258.170,7.780 258.800,8.000 258.800 C 8.220 258.800,8.400 259.229,8.400 259.754 C 8.400 260.778,9.440 264.553,10.037 265.695 C 10.237 266.077,10.400 266.741,10.400 267.171 C 10.400 267.601,10.580 268.064,10.800 268.200 C 11.020 268.336,11.200 268.797,11.200 269.224 C 11.200 269.651,11.380 270.000,11.600 270.000 C 11.820 270.000,12.000 270.540,12.000 271.200 C 12.000 271.860,12.180 272.400,12.400 272.400 C 12.620 272.400,12.800 272.850,12.800 273.400 C 12.800 273.950,12.980 274.400,13.200 274.400 C 13.420 274.400,13.600 274.760,13.600 275.200 C 13.600 275.640,13.780 276.000,14.000 276.000 C 14.220 276.000,14.400 276.540,14.400 277.200 C 14.400 277.860,14.580 278.400,14.800 278.400 C 15.020 278.400,15.200 278.760,15.200 279.200 C 15.200 279.640,15.380 280.000,15.600 280.000 C 15.820 280.000,16.000 280.360,16.000 280.800 C 16.000 281.240,16.180 281.600,16.400 281.600 C 16.620 281.600,16.800 281.960,16.800 282.400 C 16.800 282.840,16.980 283.200,17.200 283.200 C 17.420 283.200,17.600 283.740,17.600 284.400 C 17.600 285.060,17.780 285.600,18.000 285.600 C 18.220 285.600,18.400 285.960,18.400 286.400 C 18.400 286.840,18.535 287.201,18.700 287.201 C 18.865 287.202,19.450 288.192,20.000 289.400 C 20.550 290.608,21.135 291.598,21.300 291.599 C 21.465 291.599,21.600 291.960,21.600 292.400 C 21.600 292.840,21.780 293.200,22.000 293.200 C 22.220 293.200,22.400 293.520,22.400 293.912 C 22.400 294.303,22.760 294.883,23.200 295.200 C 23.640 295.517,24.000 296.097,24.000 296.488 C 24.000 296.880,24.180 297.200,24.400 297.200 C 24.620 297.200,24.800 297.464,24.800 297.786 C 24.800 298.599,26.076 301.200,26.474 301.200 C 26.653 301.200,26.800 301.560,26.800 302.000 C 26.800 302.440,26.980 302.800,27.200 302.800 C 27.420 302.800,27.600 303.036,27.600 303.325 C 27.600 303.613,27.915 304.198,28.300 304.625 C 28.685 305.051,29.269 305.940,29.597 306.600 C 29.926 307.260,30.511 308.091,30.897 308.447 C 31.284 308.803,31.600 309.348,31.600 309.659 C 31.600 309.969,31.960 310.483,32.400 310.800 C 32.840 311.117,33.200 311.657,33.200 312.000 C 33.200 312.343,33.560 312.883,34.000 313.200 C 34.440 313.517,34.800 314.025,34.800 314.328 C 34.800 314.631,35.340 315.383,36.000 316.000 C 36.660 316.617,37.200 317.369,37.200 317.672 C 37.200 317.975,37.560 318.483,38.000 318.800 C 38.440 319.117,38.800 319.625,38.800 319.928 C 38.800 320.231,39.340 320.983,40.000 321.600 C 40.660 322.217,41.200 322.903,41.200 323.126 C 41.200 323.349,41.830 324.180,42.600 324.973 C 43.370 325.766,44.000 326.601,44.000 326.829 C 44.000 327.058,45.080 328.304,46.400 329.600 C 47.720 330.896,48.800 332.151,48.800 332.391 C 48.800 332.630,50.825 334.806,53.300 337.226 C 58.703 342.510,57.490 341.297,62.774 346.700 C 65.194 349.175,67.372 351.200,67.613 351.200 C 67.855 351.200,68.929 352.100,70.000 353.200 C 71.071 354.300,72.154 355.200,72.405 355.200 C 72.657 355.200,73.554 355.920,74.400 356.800 C 75.246 357.680,76.125 358.400,76.355 358.400 C 76.585 358.400,77.403 359.030,78.173 359.800 C 78.943 360.570,79.810 361.200,80.098 361.200 C 80.387 361.200,80.883 361.560,81.200 362.000 C 81.517 362.440,82.025 362.800,82.328 362.800 C 82.631 362.800,83.383 363.340,84.000 364.000 C 84.617 364.660,85.369 365.200,85.672 365.200 C 85.975 365.200,86.483 365.560,86.800 366.000 C 87.117 366.440,87.657 366.800,88.000 366.800 C 88.343 366.800,88.883 367.160,89.200 367.600 C 89.517 368.040,90.031 368.400,90.341 368.400 C 90.652 368.400,91.197 368.716,91.553 369.103 C 91.909 369.489,92.740 370.074,93.400 370.403 C 94.060 370.731,94.949 371.315,95.375 371.700 C 95.802 372.085,96.387 372.400,96.675 372.400 C 96.964 372.400,97.200 372.580,97.200 372.800 C 97.200 373.020,97.478 373.200,97.817 373.200 C 98.156 373.200,98.817 373.558,99.287 373.995 C 99.756 374.432,100.739 374.902,101.470 375.040 C 102.202 375.177,102.800 375.449,102.800 375.645 C 102.800 375.840,103.160 376.000,103.600 376.000 C 104.040 376.000,104.400 376.180,104.400 376.400 C 104.400 376.620,104.720 376.800,105.112 376.800 C 105.503 376.800,106.083 377.160,106.400 377.600 C 106.717 378.040,107.297 378.400,107.688 378.400 C 108.080 378.400,108.400 378.546,108.400 378.725 C 108.400 378.904,109.030 379.298,109.800 379.600 C 110.570 379.902,111.200 380.296,111.200 380.475 C 111.200 380.654,111.560 380.800,112.000 380.800 C 112.440 380.800,112.800 380.980,112.800 381.200 C 112.800 381.420,113.340 381.600,114.000 381.600 C 114.660 381.600,115.200 381.780,115.200 382.000 C 115.200 382.220,115.560 382.400,116.000 382.400 C 116.440 382.400,116.800 382.580,116.800 382.800 C 116.800 383.020,117.160 383.200,117.600 383.200 C 118.040 383.200,118.400 383.380,118.400 383.600 C 118.400 383.820,118.760 384.000,119.200 384.000 C 119.640 384.000,120.000 384.180,120.000 384.400 C 120.000 384.620,120.540 384.800,121.200 384.800 C 121.860 384.800,122.400 384.980,122.400 385.200 C 122.400 385.420,122.760 385.600,123.200 385.600 C 123.640 385.600,124.000 385.780,124.000 386.000 C 124.000 386.220,124.360 386.400,124.800 386.400 C 125.240 386.400,125.600 386.580,125.600 386.800 C 125.600 387.020,126.039 387.200,126.576 387.200 C 127.113 387.200,127.664 387.380,127.800 387.600 C 127.936 387.820,128.487 388.000,129.024 388.000 C 129.561 388.000,130.000 388.180,130.000 388.400 C 130.000 388.620,130.349 388.800,130.776 388.800 C 131.203 388.800,131.664 388.980,131.800 389.200 C 131.936 389.420,132.476 389.600,133.000 389.600 C 133.524 389.600,134.064 389.780,134.200 390.000 C 134.336 390.220,134.851 390.400,135.344 390.400 C 135.837 390.400,136.419 390.579,136.638 390.798 C 136.856 391.016,138.152 391.312,139.518 391.454 C 140.883 391.597,142.000 391.868,142.000 392.057 C 142.000 392.246,142.450 392.400,143.000 392.400 C 143.550 392.400,144.000 392.580,144.000 392.800 C 144.000 393.020,144.720 393.200,145.600 393.200 C 146.480 393.200,147.200 393.380,147.200 393.600 C 147.200 393.820,147.740 394.000,148.400 394.000 C 149.060 394.000,149.600 394.180,149.600 394.400 C 149.600 394.620,150.320 394.800,151.200 394.800 C 152.080 394.800,152.800 394.980,152.800 395.200 C 152.800 395.420,153.700 395.600,154.800 395.600 C 155.900 395.600,156.800 395.780,156.800 396.000 C 156.800 396.220,157.610 396.400,158.600 396.400 C 159.590 396.400,160.400 396.580,160.400 396.800 C 160.400 397.020,161.300 397.200,162.400 397.200 C 163.500 397.200,164.400 397.380,164.400 397.600 C 164.400 397.822,165.467 398.000,166.800 398.000 C 168.133 398.000,169.200 398.178,169.200 398.400 C 169.200 398.628,170.389 398.800,171.967 398.800 C 173.824 398.800,174.788 398.964,174.900 399.300 C 175.144 400.032,224.856 400.032,225.100 399.300 C 225.212 398.964,226.176 398.800,228.033 398.800 C 229.611 398.800,230.800 398.628,230.800 398.400 C 230.800 398.178,231.867 398.000,233.200 398.000 C 234.533 398.000,235.600 397.822,235.600 397.600 C 235.600 397.380,236.579 397.200,237.776 397.200 C 238.973 397.200,240.064 397.020,240.200 396.800 C 240.336 396.580,241.067 396.400,241.824 396.400 C 242.581 396.400,243.200 396.220,243.200 396.000 C 243.200 395.780,244.100 395.600,245.200 395.600 C 246.300 395.600,247.200 395.420,247.200 395.200 C 247.200 394.980,247.920 394.800,248.800 394.800 C 249.680 394.800,250.400 394.620,250.400 394.400 C 250.400 394.180,251.120 394.000,252.000 394.000 C 252.880 394.000,253.600 393.820,253.600 393.600 C 253.600 393.380,254.140 393.200,254.800 393.200 C 255.460 393.200,256.000 393.020,256.000 392.800 C 256.000 392.580,256.630 392.400,257.400 392.400 C 258.170 392.400,258.800 392.220,258.800 392.000 C 258.800 391.780,259.229 391.600,259.754 391.600 C 260.778 391.600,264.553 390.560,265.695 389.963 C 266.077 389.763,266.741 389.600,267.171 389.600 C 267.601 389.600,268.064 389.420,268.200 389.200 C 268.336 388.980,268.797 388.800,269.224 388.800 C 269.651 388.800,270.000 388.620,270.000 388.400 C 270.000 388.180,270.439 388.000,270.976 388.000 C 271.513 388.000,272.064 387.820,272.200 387.600 C 272.336 387.380,272.887 387.200,273.424 387.200 C 273.961 387.200,274.400 387.020,274.400 386.800 C 274.400 386.580,274.760 386.400,275.200 386.400 C 275.640 386.400,276.000 386.220,276.000 386.000 C 276.000 385.780,276.540 385.600,277.200 385.600 C 277.860 385.600,278.400 385.420,278.400 385.200 C 278.400 384.980,278.760 384.800,279.200 384.800 C 279.640 384.800,280.000 384.620,280.000 384.400 C 280.000 384.180,280.360 384.000,280.800 384.000 C 281.240 384.000,281.600 383.820,281.600 383.600 C 281.600 383.380,281.960 383.200,282.400 383.200 C 282.840 383.200,283.200 383.020,283.200 382.800 C 283.200 382.580,283.740 382.400,284.400 382.400 C 285.060 382.400,285.600 382.220,285.600 382.000 C 285.600 381.780,285.960 381.600,286.400 381.600 C 286.840 381.600,287.201 381.465,287.201 381.300 C 287.202 381.135,288.192 380.550,289.400 380.000 C 290.608 379.450,291.598 378.865,291.599 378.700 C 291.599 378.535,291.960 378.400,292.400 378.400 C 292.840 378.400,293.200 378.220,293.200 378.000 C 293.200 377.780,293.520 377.600,293.912 377.600 C 294.303 377.600,294.883 377.240,295.200 376.800 C 295.517 376.360,296.097 376.000,296.488 376.000 C 296.880 376.000,297.200 375.820,297.200 375.600 C 297.200 375.380,297.464 375.200,297.786 375.200 C 298.599 375.200,301.200 373.924,301.200 373.526 C 301.200 373.347,301.560 373.200,302.000 373.200 C 302.440 373.200,302.800 373.020,302.800 372.800 C 302.800 372.580,303.036 372.400,303.325 372.400 C 303.613 372.400,304.198 372.085,304.625 371.700 C 305.051 371.315,305.940 370.731,306.600 370.403 C 307.260 370.074,308.091 369.489,308.447 369.103 C 308.803 368.716,309.348 368.400,309.659 368.400 C 309.969 368.400,310.483 368.040,310.800 367.600 C 311.117 367.160,311.657 366.800,312.000 366.800 C 312.343 366.800,312.883 366.440,313.200 366.000 C 313.517 365.560,314.025 365.200,314.328 365.200 C 314.631 365.200,315.383 364.660,316.000 364.000 C 316.617 363.340,317.369 362.800,317.672 362.800 C 317.975 362.800,318.483 362.440,318.800 362.000 C 319.117 361.560,319.625 361.200,319.928 361.200 C 320.231 361.200,320.983 360.660,321.600 360.000 C 322.217 359.340,322.934 358.800,323.194 358.800 C 323.454 358.800,324.279 358.170,325.026 357.400 C 325.774 356.630,326.579 356.000,326.815 356.000 C 327.051 356.000,328.304 354.920,329.600 353.600 C 330.896 352.280,332.151 351.200,332.391 351.200 C 332.630 351.200,334.806 349.175,337.226 346.700 C 342.510 341.297,341.297 342.510,346.700 337.226 C 349.175 334.806,351.200 332.628,351.200 332.387 C 351.200 332.145,352.100 331.071,353.200 330.000 C 354.300 328.929,355.204 327.815,355.209 327.526 C 355.214 327.237,355.934 326.381,356.809 325.624 C 357.684 324.867,358.400 324.018,358.400 323.737 C 358.400 323.456,359.030 322.597,359.800 321.827 C 360.570 321.057,361.200 320.190,361.200 319.902 C 361.200 319.613,361.560 319.117,362.000 318.800 C 362.440 318.483,362.800 317.975,362.800 317.672 C 362.800 317.369,363.340 316.617,364.000 316.000 C 364.660 315.383,365.200 314.631,365.200 314.328 C 365.200 314.025,365.560 313.517,366.000 313.200 C 366.440 312.883,366.800 312.343,366.800 312.000 C 366.800 311.657,367.160 311.117,367.600 310.800 C 368.040 310.483,368.400 309.922,368.400 309.554 C 368.400 309.187,368.656 308.787,368.970 308.667 C 369.283 308.547,369.862 307.762,370.257 306.924 C 370.651 306.086,371.295 305.051,371.687 304.625 C 372.079 304.198,372.400 303.613,372.400 303.325 C 372.400 303.036,372.580 302.800,372.800 302.800 C 373.020 302.800,373.200 302.522,373.200 302.183 C 373.200 301.844,373.558 301.183,373.995 300.713 C 374.432 300.244,374.902 299.261,375.040 298.530 C 375.177 297.798,375.449 297.200,375.645 297.200 C 375.840 297.200,376.000 296.840,376.000 296.400 C 376.000 295.960,376.180 295.600,376.400 295.600 C 376.620 295.600,376.800 295.280,376.800 294.888 C 376.800 294.497,377.160 293.917,377.600 293.600 C 378.040 293.283,378.400 292.703,378.400 292.312 C 378.400 291.920,378.546 291.600,378.725 291.600 C 378.904 291.600,379.298 290.970,379.600 290.200 C 379.902 289.430,380.296 288.800,380.475 288.800 C 380.654 288.800,380.800 288.440,380.800 288.000 C 380.800 287.560,380.980 287.200,381.200 287.200 C 381.420 287.200,381.600 286.660,381.600 286.000 C 381.600 285.340,381.780 284.800,382.000 284.800 C 382.220 284.800,382.400 284.440,382.400 284.000 C 382.400 283.560,382.580 283.200,382.800 283.200 C 383.020 283.200,383.200 282.840,383.200 282.400 C 383.200 281.960,383.380 281.600,383.600 281.600 C 383.820 281.600,384.000 281.240,384.000 280.800 C 384.000 280.360,384.180 280.000,384.400 280.000 C 384.620 280.000,384.800 279.460,384.800 278.800 C 384.800 278.140,384.980 277.600,385.200 277.600 C 385.420 277.600,385.600 277.240,385.600 276.800 C 385.600 276.360,385.780 276.000,386.000 276.000 C 386.220 276.000,386.400 275.640,386.400 275.200 C 386.400 274.760,386.580 274.400,386.800 274.400 C 387.020 274.400,387.200 273.961,387.200 273.424 C 387.200 272.887,387.380 272.336,387.600 272.200 C 387.820 272.064,388.000 271.513,388.000 270.976 C 388.000 270.439,388.180 270.000,388.400 270.000 C 388.620 270.000,388.800 269.651,388.800 269.224 C 388.800 268.797,388.980 268.336,389.200 268.200 C 389.420 268.064,389.600 267.524,389.600 267.000 C 389.600 266.476,389.780 265.936,390.000 265.800 C 390.220 265.664,390.400 265.124,390.400 264.600 C 390.400 264.076,390.572 263.541,390.782 263.411 C 390.991 263.282,391.285 262.101,391.433 260.788 C 391.582 259.475,391.860 258.400,392.052 258.400 C 392.243 258.400,392.400 257.860,392.400 257.200 C 392.400 256.540,392.580 256.000,392.800 256.000 C 393.020 256.000,393.200 255.280,393.200 254.400 C 393.200 253.520,393.380 252.800,393.600 252.800 C 393.820 252.800,394.000 252.260,394.000 251.600 C 394.000 250.940,394.180 250.400,394.400 250.400 C 394.620 250.400,394.800 249.680,394.800 248.800 C 394.800 247.920,394.980 247.200,395.200 247.200 C 395.420 247.200,395.600 246.300,395.600 245.200 C 395.600 244.100,395.780 243.200,396.000 243.200 C 396.220 243.200,396.400 242.390,396.400 241.400 C 396.400 240.410,396.580 239.600,396.800 239.600 C 397.020 239.600,397.200 238.700,397.200 237.600 C 397.200 236.500,397.380 235.600,397.600 235.600 C 397.822 235.600,398.000 234.533,398.000 233.200 C 398.000 231.867,398.178 230.800,398.400 230.800 C 398.628 230.800,398.800 229.611,398.800 228.033 C 398.800 226.176,398.964 225.212,399.300 225.100 C 399.693 224.969,399.800 219.591,399.800 200.000 C 399.800 180.409,399.693 175.031,399.300 174.900 C 398.964 174.788,398.800 173.824,398.800 171.967 C 398.800 170.389,398.628 169.200,398.400 169.200 C 398.178 169.200,398.000 168.133,398.000 166.800 C 398.000 165.467,397.822 164.400,397.600 164.400 C 397.380 164.400,397.200 163.421,397.200 162.224 C 397.200 161.027,397.020 159.936,396.800 159.800 C 396.580 159.664,396.400 158.933,396.400 158.176 C 396.400 157.419,396.220 156.800,396.000 156.800 C 395.780 156.800,395.600 155.900,395.600 154.800 C 395.600 153.700,395.420 152.800,395.200 152.800 C 394.980 152.800,394.800 152.080,394.800 151.200 C 394.800 150.320,394.620 149.600,394.400 149.600 C 394.180 149.600,394.000 148.880,394.000 148.000 C 394.000 147.120,393.820 146.400,393.600 146.400 C 393.380 146.400,393.200 145.860,393.200 145.200 C 393.200 144.540,393.020 144.000,392.800 144.000 C 392.580 144.000,392.400 143.370,392.400 142.600 C 392.400 141.830,392.220 141.200,392.000 141.200 C 391.780 141.200,391.600 140.771,391.600 140.246 C 391.600 139.222,390.560 135.447,389.963 134.305 C 389.763 133.923,389.600 133.259,389.600 132.829 C 389.600 132.399,389.420 131.936,389.200 131.800 C 388.980 131.664,388.800 131.203,388.800 130.776 C 388.800 130.349,388.620 130.000,388.400 130.000 C 388.180 130.000,388.000 129.460,388.000 128.800 C 388.000 128.140,387.820 127.600,387.600 127.600 C 387.380 127.600,387.200 127.150,387.200 126.600 C 387.200 126.050,387.020 125.600,386.800 125.600 C 386.580 125.600,386.400 125.240,386.400 124.800 C 386.400 124.360,386.220 124.000,386.000 124.000 C 385.780 124.000,385.600 123.460,385.600 122.800 C 385.600 122.140,385.420 121.600,385.200 121.600 C 384.980 121.600,384.800 121.240,384.800 120.800 C 384.800 120.360,384.620 120.000,384.400 120.000 C 384.180 120.000,384.000 119.640,384.000 119.200 C 384.000 118.760,383.820 118.400,383.600 118.400 C 383.380 118.400,383.200 118.040,383.200 117.600 C 383.200 117.160,383.020 116.800,382.800 116.800 C 382.580 116.800,382.400 116.260,382.400 115.600 C 382.400 114.940,382.220 114.400,382.000 114.400 C 381.780 114.400,381.600 114.040,381.600 113.600 C 381.600 113.160,381.465 112.799,381.300 112.799 C 381.135 112.798,380.550 111.808,380.000 110.600 C 379.450 109.392,378.865 108.402,378.700 108.401 C 378.535 108.401,378.400 108.040,378.400 107.600 C 378.400 107.160,378.220 106.800,378.000 106.800 C 377.780 106.800,377.600 106.480,377.600 106.088 C 377.600 105.697,377.240 105.117,376.800 104.800 C 376.360 104.483,376.000 103.903,376.000 103.512 C 376.000 103.120,375.820 102.800,375.600 102.800 C 375.380 102.800,375.200 102.536,375.200 102.214 C 375.200 101.401,373.924 98.800,373.526 98.800 C 373.347 98.800,373.200 98.440,373.200 98.000 C 373.200 97.560,373.020 97.200,372.800 97.200 C 372.580 97.200,372.400 96.964,372.400 96.675 C 372.400 96.387,372.085 95.802,371.700 95.375 C 371.315 94.949,370.731 94.060,370.403 93.400 C 370.074 92.740,369.489 91.909,369.103 91.553 C 368.716 91.197,368.400 90.652,368.400 90.341 C 368.400 90.031,368.040 89.517,367.600 89.200 C 367.160 88.883,366.800 88.343,366.800 88.000 C 366.800 87.657,366.440 87.117,366.000 86.800 C 365.560 86.483,365.200 85.975,365.200 85.672 C 365.200 85.369,364.660 84.617,364.000 84.000 C 363.340 83.383,362.800 82.631,362.800 82.328 C 362.800 82.025,362.440 81.517,362.000 81.200 C 361.560 80.883,361.200 80.375,361.200 80.072 C 361.200 79.769,360.660 79.017,360.000 78.400 C 359.340 77.783,358.800 77.087,358.800 76.853 C 358.800 76.618,358.170 75.797,357.400 75.027 C 356.630 74.257,356.000 73.431,356.000 73.191 C 356.000 72.952,354.920 71.696,353.600 70.400 C 352.280 69.104,351.200 67.849,351.200 67.609 C 351.200 67.370,349.175 65.194,346.700 62.774 C 341.297 57.490,342.510 58.703,337.226 53.300 C 334.806 50.825,332.641 48.800,332.415 48.800 C 332.189 48.800,331.085 47.900,329.961 46.800 C 328.838 45.700,327.712 44.796,327.459 44.791 C 327.207 44.787,326.462 44.157,325.804 43.391 C 325.146 42.626,324.403 42.000,324.152 42.000 C 323.901 42.000,322.955 41.280,322.048 40.400 C 321.141 39.520,320.169 38.800,319.888 38.800 C 319.607 38.800,319.117 38.440,318.800 38.000 C 318.483 37.560,317.975 37.200,317.672 37.200 C 317.369 37.200,316.617 36.660,316.000 36.000 C 315.383 35.340,314.631 34.800,314.328 34.800 C 314.025 34.800,313.517 34.440,313.200 34.000 C 312.883 33.560,312.343 33.200,312.000 33.200 C 311.657 33.200,311.117 32.840,310.800 32.400 C 310.483 31.960,309.922 31.600,309.554 31.600 C 309.187 31.600,308.785 31.339,308.663 31.019 C 308.540 30.700,307.650 30.078,306.685 29.639 C 305.720 29.199,304.699 28.561,304.416 28.220 C 304.134 27.879,303.654 27.600,303.351 27.600 C 303.048 27.600,302.800 27.420,302.800 27.200 C 302.800 26.980,302.440 26.800,302.000 26.800 C 301.560 26.800,301.200 26.653,301.200 26.474 C 301.200 26.076,298.599 24.800,297.786 24.800 C 297.464 24.800,297.200 24.620,297.200 24.400 C 297.200 24.180,296.840 24.000,296.400 24.000 C 295.960 24.000,295.600 23.820,295.600 23.600 C 295.600 23.380,295.280 23.200,294.888 23.200 C 294.497 23.200,293.917 22.840,293.600 22.400 C 293.283 21.960,292.703 21.600,292.312 21.600 C 291.920 21.600,291.600 21.454,291.600 21.275 C 291.600 21.096,290.970 20.702,290.200 20.400 C 289.430 20.098,288.800 19.704,288.800 19.525 C 288.800 19.346,288.440 19.200,288.000 19.200 C 287.560 19.200,287.200 19.020,287.200 18.800 C 287.200 18.580,286.660 18.400,286.000 18.400 C 285.340 18.400,284.800 18.220,284.800 18.000 C 284.800 17.780,284.440 17.600,284.000 17.600 C 283.560 17.600,283.200 17.420,283.200 17.200 C 283.200 16.980,282.840 16.800,282.400 16.800 C 281.960 16.800,281.600 16.620,281.600 16.400 C 281.600 16.180,281.240 16.000,280.800 16.000 C 280.360 16.000,280.000 15.820,280.000 15.600 C 280.000 15.380,279.460 15.200,278.800 15.200 C 278.140 15.200,277.600 15.020,277.600 14.800 C 277.600 14.580,277.240 14.400,276.800 14.400 C 276.360 14.400,276.000 14.220,276.000 14.000 C 276.000 13.780,275.640 13.600,275.200 13.600 C 274.760 13.600,274.400 13.420,274.400 13.200 C 274.400 12.980,273.961 12.800,273.424 12.800 C 272.887 12.800,272.336 12.620,272.200 12.400 C 272.064 12.180,271.513 12.000,270.976 12.000 C 270.439 12.000,270.000 11.820,270.000 11.600 C 270.000 11.380,269.651 11.200,269.224 11.200 C 268.797 11.200,268.336 11.020,268.200 10.800 C 268.064 10.580,267.524 10.400,267.000 10.400 C 266.476 10.400,265.936 10.220,265.800 10.000 C 265.664 9.780,265.124 9.600,264.600 9.600 C 264.076 9.600,263.541 9.428,263.411 9.218 C 263.282 9.009,262.101 8.715,260.788 8.567 C 259.475 8.418,258.400 8.140,258.400 7.948 C 258.400 7.757,257.860 7.600,257.200 7.600 C 256.540 7.600,256.000 7.420,256.000 7.200 C 256.000 6.980,255.280 6.800,254.400 6.800 C 253.520 6.800,252.800 6.620,252.800 6.400 C 252.800 6.180,252.260 6.000,251.600 6.000 C 250.940 6.000,250.400 5.820,250.400 5.600 C 250.400 5.380,249.680 5.200,248.800 5.200 C 247.920 5.200,247.200 5.020,247.200 4.800 C 247.200 4.580,246.300 4.400,245.200 4.400 C 244.100 4.400,243.200 4.220,243.200 4.000 C 243.200 3.780,242.390 3.600,241.400 3.600 C 240.410 3.600,239.600 3.420,239.600 3.200 C 239.600 2.980,238.700 2.800,237.600 2.800 C 236.500 2.800,235.600 2.620,235.600 2.400 C 235.600 2.178,234.533 2.000,233.200 2.000 C 231.867 2.000,230.800 1.822,230.800 1.600 C 230.800 1.372,229.611 1.200,228.033 1.200 C 226.238 1.200,225.211 1.032,225.107 0.720 C 224.948 0.244,188.291 -0.109,178.700 0.273 M213.000 84.051 C 215.420 84.288,217.922 84.644,218.560 84.841 C 219.198 85.039,220.156 85.200,220.689 85.200 C 223.536 85.200,236.787 89.020,244.200 91.977 C 261.578 98.910,280.356 112.974,291.256 127.220 C 294.369 131.289,295.276 132.544,297.533 135.900 C 298.890 137.918,300.000 139.648,300.000 139.744 C 300.000 139.840,300.682 141.062,301.516 142.459 C 307.601 152.654,313.364 169.034,315.147 181.200 C 315.389 182.850,315.794 185.550,316.048 187.200 C 317.141 194.303,316.519 211.400,314.818 221.000 C 310.034 248.000,294.504 274.012,272.988 291.059 C 268.844 294.342,261.496 299.469,260.000 300.120 C 259.670 300.264,258.500 300.920,257.400 301.578 C 248.279 307.034,236.959 311.250,223.000 314.392 C 216.414 315.874,209.696 316.471,199.800 316.453 C 188.730 316.432,181.180 315.584,172.600 313.400 C 144.948 306.360,123.859 292.390,106.173 269.396 C 101.817 263.732,96.965 255.371,93.405 247.394 C 89.426 238.478,86.408 228.272,84.833 218.400 C 83.688 211.226,83.505 208.680,83.508 199.994 C 83.511 191.301,83.697 188.720,84.833 181.600 C 87.093 167.436,92.984 151.004,99.391 140.988 C 100.166 139.776,100.800 138.688,100.800 138.570 C 100.800 136.708,113.187 121.510,119.788 115.273 C 126.940 108.516,133.544 103.639,142.800 98.277 C 145.083 96.955,151.426 93.741,152.243 93.493 C 152.660 93.367,154.350 92.697,156.000 92.006 C 160.646 90.058,166.588 88.094,171.200 86.981 C 177.171 85.541,178.255 85.313,181.400 84.840 C 182.940 84.608,184.920 84.297,185.800 84.150 C 191.123 83.258,204.429 83.210,213.000 84.051 M166.800 163.342 C 165.774 163.865,164.484 164.993,163.800 165.965 L 162.600 167.669 162.493 199.611 L 162.386 231.554 163.336 233.277 C 163.874 234.253,165.111 235.564,166.188 236.300 L 168.090 237.600 199.861 237.600 C 234.911 237.600,233.103 237.725,235.453 235.139 C 237.703 232.663,237.600 234.353,237.600 199.865 L 237.600 168.090 236.300 166.168 C 235.502 164.988,234.319 163.889,233.237 163.323 L 231.474 162.400 200.037 162.411 L 168.600 162.423 166.800 163.342 " stroke="none" fill="#2058ea" fill-rule="evenodd"></path></g></svg>